<svg width="16" height="15" viewBox="0 0 16 15" fill="none" xmlns="http://www.w3.org/2000/svg">
<path fill-rule="evenodd" clip-rule="evenodd" d="M8.50987 4.296V5.993C8.8651 5.45154 9.35491 5.01165 9.9313 4.71644C10.5077 4.42123 11.1509 4.28083 11.7979 4.309C15.2529 4.309 15.9999 6.469 15.9999 9.279V15H12.7999V9.928C12.7999 8.718 12.5559 7.162 10.6719 7.162C8.84487 7.162 8.53287 8.479 8.53287 9.838V15H5.34287V4.296H8.50987ZM3.19987 1.606C3.19948 1.923 3.10551 2.23284 2.92975 2.49665C2.75399 2.76047 2.50426 2.96653 2.21187 3.089C1.9196 3.21048 1.59779 3.24226 1.2874 3.18029C0.977017 3.11832 0.692085 2.9654 0.46887 2.741C0.245236 2.51646 0.092985 2.23081 0.0312626 1.91997C-0.0304597 1.60913 0.00110298 1.28698 0.121981 0.994027C0.242859 0.701077 0.447655 0.450407 0.710617 0.273539C0.973579 0.0966713 1.28297 0.0015024 1.59987 0C1.81045 0.000130505 2.01894 0.0418039 2.2134 0.122633C2.40785 0.203462 2.58445 0.321859 2.73307 0.471042C2.8817 0.620226 2.99943 0.797265 3.07953 0.992019C3.15964 1.18677 3.20053 1.39542 3.19987 1.606Z" fill="#106517"/>
<path d="M3.2 4.30908H0V15.0001H3.2V4.30908Z" fill="#106517"/>
</svg>
